<?xml version="1.0" encoding="utf-8"?>
<!-- Generator: Adobe Illustrator 23.0.0, SVG Export Plug-In . SVG Version: 6.00 Build 0)  -->
<svg version="1.1" id="Layer_1" xmlns="http://www.w3.org/2000/svg" xmlns:xlink="http://www.w3.org/1999/xlink" x="0px" y="0px"
	 viewBox="0 0 1417.3 510.2" style="enable-background:new 0 0 1417.3 510.2;" xml:space="preserve">
<style type="text/css">
	.st0{fill:#FFFFFF;}
</style>
<path class="st0" d="M857.5,74.6c26.4-1.7,51.7,5.5,77.4,9.3c2.3,0.3,4.6,0.6,6.9,0.8c7.1,0.7,11.4-2.6,14.2-9
	c3.9-9,8.1-18,12.2-26.9c1.2-2.6,2.5-5.2,3.8-7.8c1.9-3.8,4.8-5.7,9.1-4.9s6.5,3.8,7.2,7.8c0.7,4.9,0.5,9.9-0.7,14.7
	c-1.6,6.7-3.7,13.4-5.5,20.1c-1.8,6.9-0.4,8.9,6.9,9.4s14.4-1.2,21.3-3.6c7.7-2.7,15.2-5.5,22.8-8.4c4.7-1.8,9.2-1.8,12.9,1.8
	c4,3.9,3.9,8.8,2.1,13.8c-0.9,2.4-1.9,4.8-2.8,7.3c-0.8,2-1.2,3.9,0.9,5.5c1.8,1.3,4.2,0.6,5.9-0.8c2-1.7,3.7-3.7,5.2-5.8
	c5.3-7.4,11.8-13.5,18.7-19.3c6.4-5.5,13.9-9.5,22.1-11.7c13.3-3.4,25.3,2.2,30.8,14.6c3.8,8.8,5.1,18.6,3.6,28.1
	c-2.2,16.1-6.5,31.8-11.4,47.2c-2.3,7.2-4.3,14.4-6.3,21.7c-0.6,1.9-0.8,4-0.8,6c0.2,4.2,2.6,5.6,6.5,3.9c4.4-1.8,7.7-5.2,10.7-8.7
	c15.4-17.7,30.6-35.6,42.1-56.3c6.8-12.3,15.2-23.2,26.6-31.7c14-10.4,29.7-16.2,46.8-16.5c22.1-0.5,35.4,10.4,38.5,28.8
	c1.8,10.7-1.6,20.7-6.8,30c-9.5,16.8-23.5,28.5-41.3,35.7c-13.2,5.3-26.6,9.8-41.2,9.3c-6.5-0.2-8.3,2.1-9.9,8.7
	c-1,4.4-0.4,8.7,0.5,12.9c4.3,18.8,13.1,34.3,32.5,40.7c20.6,6.8,38.9,1.4,54.8-12.7c5.2-4.6,9.4-10.2,14.1-15.4
	c2.2-2.4,4.3-4.7,7.3-6c5.7-2.5,10.4-0.5,12.3,5.5c1.8,6.1,1.5,12.7-0.8,18.7c-9.9,27.2-38.5,47.2-67.5,48.3
	c-45.4,1.6-78.9-31.6-84.5-74.6c-0.4-3-0.4-7.8-2.8-8.5c-3-0.8-5.9,2.6-8.1,5.1c-6.9,7.8-13.5,15.9-23.2,20.7
	c-7.3,3.5-14.9,5-22.7,2.4c-11.5-3.7-18.8-15.6-17.6-28c1.2-12.4,3.7-24.6,7.2-36.6c5.1-17.5,10.9-34.8,13.9-52.9
	c0.7-3.9,2.7-8.6-1.6-11.2s-7.5,1.5-10.7,3.8c-8.3,6-14.3,14.4-20.5,22.3c-18.1,22.7-33.3,47.5-45.3,73.9c-4,9-8.4,17.8-12.6,26.7
	c-1.6,3.7-4,7.1-6.8,10c-6.7,6.4-15.2,4.9-19.3-3.3c-3.1-6.3-2.8-13-1.4-19.6c4.4-21.6,11.3-42.5,19.2-63.1c2.3-5.9,4.3-12,6.5-18
	c1.1-3,1.6-6.2,1.6-9.4c0-3.6-1.6-5.6-5.3-5.2c-10.9,1.2-21.9,2.4-32.7,4c-4.4,0.7-8.1,3.7-9.7,7.9c-11.8,27.8-22.5,55.9-27.5,85.8
	c-3.4,20.6-5,41.4-2.4,62.3c1.7,13.2,3.6,14.6,15.9,10.4c27.7-9.4,55.6-18.2,84.5-22.8c25.9-4.1,52-5.8,77.6,1.2
	c20.5,5.6,35.8,18.1,40.7,39.8c4,17.9-0.6,34.6-10.5,49.6c-18.1,27.3-44.2,43.6-75.7,49.8c-40.4,8-78.4,0.2-112-24.6
	c-12.5-9.1-23-20.5-31.1-33.6c-4.3-7.1-6.2-7.2-14.3-4.3c-42.2,15.4-82.1,36.1-123.6,53.2c-44.7,18.4-89.4,36.8-135,52.8
	c-28.7,10-58.1,18.1-87.8,24.2c-25.8,5.3-51.8,9.5-78.4,9.7c-33.4,0.2-64.2-7.8-91.7-27.2c-6.2-4.3-11.7-9.6-16.1-15.7
	c-1.4-1.9-2.6-3.8-3.6-5.9c-2.5-5.5-2.1-11.4,1.2-13.7c4.6-3.2,8.8-1.2,12.8,1.6c2.4,1.7,4.8,3.3,7.1,5
	c18.8,13.8,40.3,19.9,63.3,21.3c27.1,1.8,53.8-2.2,80.3-7.5c40.4-8,79.7-20.1,118.4-33.8c31.9-11.4,63.2-24.4,94.5-37.3
	c39.1-16,78-32.5,117-48.8c9.3-3.9,19-7,28.1-11.7c7.6-3.9,9-6.2,7.5-14.5c-2-11.7-2.1-23.7-0.5-35.5c0.2-1.1,0.3-2.3,0.3-3.4
	c-0.2-1.8-1-3.4-2.9-3.9c-1.7-0.4-2.7,0.8-3.6,1.9c-3.2,4.1-6.3,8.3-9.6,12.3c-3.7,4.5-7.9,8.5-12.6,12c-13.8,10.4-29.8,8.5-41-4.7
	c-2.5-2.9-4.2-6.2-6.1-9.5c-2.3-3.9-5.4-4.2-8.3-0.8c-1.5,1.7-2.4,4-3.6,6c-6.7,11.6-16,21.5-27.2,28.9
	c-17.5,11.5-33.3,9.3-47.2-6.2c-5.6-6.3-7.7-6-12,1.4c-8.6,14.8-19.9,27-34.5,36.1c-13.9,8.6-36.8,9.8-49.8-8.2
	c-0.8-1.2-1.7-2.3-2.8-3.4c-4.3-4.4-7.9-4.3-11.2,0.9c-4.2,6.6-8.3,13.3-13.8,18.9c-6.5,6.8-13.8,12.3-23.1,14.8
	c-17.7,4.8-35-3.5-42.1-20.3c-1-2.4-1.7-5-3-7.2c-2.3-3.9-5.3-4.2-8.3-0.8c-1.7,2-2.8,4.4-4.2,6.6c-8.3,13.5-17.8,25.8-32.2,33.4
	c-20,10.7-43.2,2.5-52.1-18.3c-6-13.9-5.8-28.3-2.7-42.7c9.8-45,36.5-76.2,79.3-93c14.4-5.7,29.7-7.9,45-2.5c2.8,1,5.8,0.7,8.3-0.9
	c1.5-0.9,3.1-1.6,4.7-2.2c8.7-3.3,14.5,1,13.6,10.3c-0.6,4.3-1.5,8.6-2.8,12.7c-5.9,20.9-13,41.4-16.9,62.9
	c-1.3,7.1-1.6,14.4-0.8,21.6c1,9.2,7,12.5,15.4,8.6c9-4.2,15-11.9,20.5-19.7c14.3-20.2,25.6-42.2,33.7-65.6
	c15.3-44.1,32.2-87.5,49.9-130.6c7.5-18.2,14.4-36.7,15-56.8c0.2-2,0.6-4,1.1-6c0.8-4,2.5-7.1,7-7.8c4.7-0.8,8.2,0.7,10.9,5.3
	c4.2,7.6,6.1,16.4,5.5,25.1c-1.1,21.1-6.8,41.2-13.6,60.8c-13,37.8-26.8,75.3-40.2,112.9c-5.1,14.5-9.7,29.1-12.5,44.3
	c-0.8,3.7-1,7.5-0.5,11.2c0.9,5.8,4.9,8.3,10.7,7c3.1-0.8,6-2.3,8.4-4.4c22.1-18.9,40.8-40.2,49-69.1c5.1-18.2,13.3-35.3,24.4-50.7
	c14.8-20.3,33.9-34.7,58.3-41.5c9.1-2.5,18.3-3,27.4-0.2c3.8,1.2,7.4,1.5,10.6-1.3c1.8-1.5,4.1-2.3,6.4-2.5c5.2-0.7,7.7,1.3,8.2,6.4
	c0.2,4.3-0.3,8.7-1.5,12.9c-6.4,25.6-12.4,51.2-16.8,77.2c-1.3,6.6-1.6,13.3-1,19.9c0.9,7.8,5,9.6,11,4.5
	c6.4-5.5,11.6-12.1,16.4-19.1c17.3-25.5,32.4-52.1,41.8-81.7c2.5-8,6.2-15.6,8.8-23.6c2.8-8.5,1.2-10.8-7.5-12.8
	c-25.9-6.2-52.5-9.6-79.1-10.3c-17.1-0.5-34.2,0.2-50.9,4.8c-2.8,0.9-5.7,1.2-8.6,1c-6.3-0.8-8.8-5.6-5.7-11.3
	c2.8-5.1,7.4-8,12.4-10.4c12.8-6.2,26.8-9.8,41-10.6C841.8,74.1,849.7,74.6,857.5,74.6z M1075.9,293.7c-4.9,0-9.9-0.5-14.7,0.1
	c-20.1,2.5-40,6.1-59.5,11.9c-13.3,3.9-26.5,8.4-39.3,13.7c-10.6,4.4-10.3,8.4-3.4,15.8c13.7,14.7,30.3,23.9,49.3,29.4
	c28.6,8.3,56.1,6.6,81.8-9.5c12.7-8,23.5-17.9,28.4-32.8c3.4-10.2,1-16.5-8.1-22.1c-2.5-1.5-5.1-2.6-7.9-3.5
	C1094,293.7,1084.9,292.7,1075.9,293.7z M768.9,247.6c0.1,1.5,0.1,2.9,0.3,4.3c0.8,8.7,5.4,11,12.9,6.5c4.8-2.9,8.5-7,11.8-11.4
	c11.6-15.2,22.2-31.2,31.6-47.8c5.9-10.6,10.9-21.8,14.8-33.3c2.2-6.3,0.7-7.9-6.1-6.8c-1.7,0.3-3.4,0.8-5,1.4
	c-9.5,3.5-18.2,9-25.6,15.9c-17.1,16-27.1,35.9-32.7,58.2C769.8,238.9,768.8,243.1,768.9,247.6L768.9,247.6z M482.1,313.6
	c1.2,3.5,0.1,8.8,5.1,11.4s9-0.2,12.8-2.8c5.3-3.6,10.1-7.8,14.4-12.5c14-15.3,23.8-33.5,34.2-51.2c3.7-6.2,6.5-12.9,9.6-19.5
	c1.1-2.3,2.3-5,0.2-7.3s-5-1.5-7.4-0.8c-4.4,1.4-8.7,3.1-12.8,5.3c-23.6,12.7-40,32.1-50.9,56.3
	C484.5,298.9,483.1,305.7,482.1,313.6L482.1,313.6z M1207.3,151.6c16.3-2.2,31.7-9.2,43-23.8c2.8-3.7,5.4-7.6,6.5-12.2
	c2-8.4-1.1-12.1-9.7-11.8c-18.8,0.8-43.2,20.9-47.7,39.4C1198.1,149,1199.8,151.3,1207.3,151.6L1207.3,151.6z"/>
<path class="st0" d="M304.7,51.5c64.7-1.2,113,39.2,131.8,96c10,30,9.1,60.4,2.9,91c-9.9,48.6-34,89.4-67.6,125.3
	c-18.1,19.4-37.9,36.7-60.3,50.9c-34.9,22.2-72.7,37.1-113.6,43.4c-22.7,3.5-45.6,3.2-68.2-2.4c-5.1-1.3-9.7-3.8-13.7-7.2
	c-6.4-5.3-9-12-6.6-20.2c2.3-8,8.4-11.4,16.1-12.6c5.5-0.8,11-0.7,16.5,0.3c19.5,3.2,38.7,1.3,57.8-2.8
	c46.8-10.1,86.8-32.9,122.5-64.1c15.5-13.5,29.6-28.6,42.1-45c21.4-28.2,34-59.6,36.9-95c1.8-21.7,0.4-42.8-8.6-63
	c-15.6-35.2-54.7-63.3-100-57.5c-48,6.1-83.1,31.8-105.6,74.4c-8.6,16.3-11.9,33.8-7.9,52.2c2.6,12,8,22.3,17.6,30.1
	c9.4,7.6,19.2,6.1,23.9-5.1c6.8-16.3,14.8-32.1,23.9-47.2c12.4-20.7,26.5-40.2,43.9-57c7.1-6.9,15-12.8,24.3-16.5
	c3.8-1.6,7.9-2,11.9-1.2c6.1,1.4,8.3,6.6,5,11.9c-1.2,1.7-2.5,3.2-4,4.6c-25.5,27.4-45.2,58.7-61.3,92.3c-2.5,5.2-5.2,10.4-7.3,15.8
	c-2.6,6.8,0.3,10.6,7.6,10.7c3.5,0,6.9-1.1,10.1-2.2c11.8-4.1,23.1-9.3,32.8-17.5c3.5-3,7.2-5.9,10.9-8.6c3.1-2.3,6.7-4.1,10.5-2
	c4.3,2.4,4.1,6.8,3.4,10.9c-1.3,8-6.1,14.2-11.4,20.1c-14.9,16.4-33.9,25.8-54.8,32c-4.2,1.2-8.3,2.6-12.5,3.5
	c-8.5,1.7-13.7,7-16.8,14.7c-4.8,11.8-9,23.9-12.5,36.1c-2.7,9.5-5.6,18.9-8.5,28.3c-1,3.3-2.5,6.5-4.4,9.4c-4,5.8-9.7,8.1-16.6,7.2
	c-6.2-0.9-9.5-5.3-11.3-10.8c-3.2-9.3-2.4-18.8-0.9-28.4c2.4-15,7.7-29.1,12.9-43.2c1.1-3,2.3-6,3.2-9c1.9-6.6,0.9-8.6-5.7-11.2
	c-10.9-4.3-20.9-9.9-29.2-18.4c-13.9-13.9-21.9-32.6-22.4-52.3c-1.5-41.2,14.8-75.6,41.5-105.6c26-29.3,59.1-45.9,97.3-53
	C288.4,52.1,296.5,51.5,304.7,51.5z"/>
</svg>
